HIERARCHY
ROOT hip
{
  OFFSET 0 0 0
  CHANNELS 6 Xposition Yposition Zposition Zrotation Yrotation Xrotation
  JOINT abdomen
  {
    OFFSET 0 20.6881 -0.73152
    CHANNELS 3 Zrotation Xrotation Yrotation
    JOINT chest
    {
      OFFSET 0 11.7043 -0.48768
      CHANNELS 3 Zrotation Xrotation Yrotation
      JOINT neck
      {
        OFFSET 0 22.1894 -2.19456
        CHANNELS 3 Zrotation Xrotation Yrotation
        JOINT head
        {
          OFFSET -0.24384 7.07133 1.2192
          CHANNELS 3 Zrotation Xrotation Yrotation
          JOINT leftEye
          {
            OFFSET 4.14528 8.04674 8.04672
            CHANNELS 3 Zrotation Xrotation Yrotation
            End Site
            {
              OFFSET 1 0 0
            }
          }
          JOINT rightEye
          {
            OFFSET -3.6576 8.04674 8.04672
            CHANNELS 3 Zrotation Xrotation Yrotation
            End Site
            {
              OFFSET 1 0 0
            }
          }
        }
      }
      JOINT rCollar
      {
        OFFSET -2.68224 19.2634 -4.8768
        CHANNELS 3 Zrotation Xrotation Yrotation
        JOINT rShldr
        {
          OFFSET -8.77824 -1.95073 1.46304
          CHANNELS 3 Zrotation Xrotation Yrotation
          JOINT rForeArm
          {
            OFFSET -28.1742 -1.7115 0.48768
            CHANNELS 3 Zrotation Xrotation Yrotation
            JOINT rHand
            {
              OFFSET -22.5879 0.773209 7.07136
              CHANNELS 3 Zrotation Xrotation Yrotation
              JOINT rThumb1
              {
                OFFSET -1.2192 -0.487915 3.41376
                CHANNELS 3 Zrotation Xrotation Yrotation
                JOINT rThumb2
                {
                  OFFSET -3.37035 -0.52449 3.41376
                  CHANNELS 3 Zrotation Xrotation Yrotation
                  End Site
                  {
                    OFFSET -1.78271 -1.18214 1.43049
                  }
                }
              }
              JOINT rIndex1
              {
                OFFSET -7.75947 0.938293 5.60832
                CHANNELS 3 Zrotation Xrotation Yrotation
                JOINT rIndex2
                {
                  OFFSET -2.54057 -0.884171 1.56538
                  CHANNELS 3 Zrotation Xrotation Yrotation
                  End Site
                  {
                    OFFSET -1.62519 -0.234802 1.16502
                  }
                }
              }
              JOINT rMid1
              {
                OFFSET -8.24714 1.18213 3.41376
                CHANNELS 3 Zrotation Xrotation Yrotation
                JOINT rMid2
                {
                  OFFSET -3.10165 -0.590103 1.0647
                  CHANNELS 3 Zrotation Xrotation Yrotation
                  End Site
                  {
                    OFFSET -2.48547 -0.328903 0.83742
                  }
                }
              }
              JOINT rRing1
              {
                OFFSET -8.82822 0.546677 1.51678
                CHANNELS 3 Zrotation Xrotation Yrotation
                JOINT rRing2
                {
                  OFFSET -2.60934 -0.819778 -0.0198488
                  CHANNELS 3 Zrotation Xrotation Yrotation
                  End Site
                  {
                    OFFSET -2.33842 -0.294052 0.168128
                  }
                }
              }
              JOINT rPinky1
              {
                OFFSET -8.27202 -0.0477905 -0.4584
                CHANNELS 3 Zrotation Xrotation Yrotation
                JOINT rPinky2
                {
                  OFFSET -1.82734 -0.647385 -0.700984
                  CHANNELS 3 Zrotation Xrotation Yrotation
                  End Site
                  {
                    OFFSET -1.69225 -0.51767 -0.607171
                  }
                }
              }
            }
          }
        }
      }
      JOINT lCollar
      {
        OFFSET 2.68224 19.2634 -4.8768
        CHANNELS 3 Zrotation Xrotation Yrotation
        JOINT lShldr
        {
          OFFSET 8.77824 -1.95073 1.46304
          CHANNELS 3 Zrotation Xrotation Yrotation
          JOINT lForeArm
          {
            OFFSET 28.1742 -1.7115 0.48768
            CHANNELS 3 Zrotation Xrotation Yrotation
            JOINT lHand
            {
              OFFSET 22.5879 0.773209 7.07136
              CHANNELS 3 Zrotation Xrotation Yrotation
              JOINT lThumb1
              {
                OFFSET 1.2192 -0.487915 3.41376
                CHANNELS 3 Zrotation Xrotation Yrotation
                JOINT lThumb2
                {
                  OFFSET 3.37035 -0.52449 3.41376
                  CHANNELS 3 Zrotation Xrotation Yrotation
                  End Site
                  {
                    OFFSET 1.78271 -1.18214 1.43049
                  }
                }
              }
              JOINT lIndex1
              {
                OFFSET 7.75947 0.938293 5.60832
                CHANNELS 3 Zrotation Xrotation Yrotation
                JOINT lIndex2
                {
                  OFFSET 2.54057 -0.884171 1.56538
                  CHANNELS 3 Zrotation Xrotation Yrotation
                  End Site
                  {
                    OFFSET 1.62519 -0.234802 1.16502
                  }
                }
              }
              JOINT lMid1
              {
                OFFSET 8.24714 1.18213 3.41376
                CHANNELS 3 Zrotation Xrotation Yrotation
                JOINT lMid2
                {
                  OFFSET 3.10165 -0.590103 1.0647
                  CHANNELS 3 Zrotation Xrotation Yrotation
                  End Site
                  {
                    OFFSET 2.48547 -0.328903 0.83742
                  }
                }
              }
              JOINT lRing1
              {
                OFFSET 8.82822 0.546677 1.51678
                CHANNELS 3 Zrotation Xrotation Yrotation
                JOINT lRing2
                {
                  OFFSET 2.60934 -0.819778 -0.0198488
                  CHANNELS 3 Zrotation Xrotation Yrotation
                  End Site
                  {
                    OFFSET 2.33842 -0.294052 0.168128
                  }
                }
              }
              JOINT lPinky1
              {
                OFFSET 8.27202 -0.0477905 -0.4584
                CHANNELS 3 Zrotation Xrotation Yrotation
                JOINT lPinky2
                {
                  OFFSET 1.82734 -0.647385 -0.700984
                  CHANNELS 3 Zrotation Xrotation Yrotation
                  End Site
                  {
                    OFFSET 1.69225 -0.51767 -0.607171
                  }
                }
              }
            }
          }
        }
      }
    }
  }
  JOINT rButtock
  {
    OFFSET -8.77824 4.35084 1.2192
    CHANNELS 3 Zrotation Xrotation Yrotation
    JOINT rThigh
    {
      OFFSET 0 -1.70687 -2.19456
      CHANNELS 3 Zrotation Xrotation Yrotation
      JOINT rShin
      {
        OFFSET 0 -36.8199 0.73152
        CHANNELS 3 Zrotation Xrotation Yrotation
        JOINT rFoot
        {
          OFFSET 0.73152 -45.1104 -5.12064
          CHANNELS 3 Zrotation Xrotation Yrotation
          End Site
          {
            OFFSET -1.1221 -3.69964 12.103
          }
        }
      }
    }
  }
  JOINT lButtock
  {
    OFFSET 8.77824 4.35084 1.2192
    CHANNELS 3 Zrotation Xrotation Yrotation
    JOINT lThigh
    {
      OFFSET 0 -1.70687 -2.19456
      CHANNELS 3 Zrotation Xrotation Yrotation
      JOINT lShin
      {
        OFFSET 0 -36.8199 0.73152
        CHANNELS 3 Zrotation Xrotation Yrotation
        JOINT lFoot
        {
          OFFSET -0.73152 -45.1104 -5.12064
          CHANNELS 3 Zrotation Xrotation Yrotation
          End Site
          {
            OFFSET 1.1221 -3.69964 12.103
          }
        }
      }
    }
  }
}
MOTION
Frames:	4
Frame Time:	0.00833333
57.4324 80.1067 187.822 0.0 0.0 0.0 2.23595 -0.00045798 0.0604468 0.615852 0.00897774 0.1066 2.81555e-14 2.38542e-15 2.48481e-16 8.51901e-14 1.59028e-14 6.91087e-16 -0.0 0.0 0.0 -0.0 0.0 0.0 1.42617e-14 -3.84369e-17 1.98785e-16 2.99842e-13 -8.01351e-16 5.1684e-15 5.1448e-12 -1.56344e-12 2.22639e-14 5.88065e-11 1.39701e-12 6.64736e-13 1.38727e-10 -3.63208e-13 1.49804e-12 2.39553e-10 -6.26569e-13 2.57545e-12 1.38731e-10 -3.64174e-13 1.4885e-12 7.73091 5.47488 0.417314 1.38727e-10 -3.63776e-13 1.50122e-12 2.90554 0.965183 0.102902 1.38727e-10 -3.63677e-13 1.49088e-12 10.2786 0.731801 0.0259123 1.38722e-10 -3.60993e-13 1.49486e-12 2.22167 -0.733487 -0.20892 1.4066e-14 -3.72721e-17 9.93923e-17 2.97086e-13 -9.06955e-16 2.5842e-15 5.13297e-12 1.51355e-12 0.0 5.88181e-11 -1.69059e-12 6.93361e-13 1.38731e-10 -3.85338e-13 1.48214e-12 2.396e-10 -6.64736e-13 2.5675e-12 1.38728e-10 -3.8604e-13 1.50122e-12 -7.73091 5.47488 -0.417314 1.38731e-10 -3.86239e-13 1.48214e-12 -2.90554 0.965183 -0.102902 1.38728e-10 -3.85642e-13 1.49009e-12 -10.2786 0.731801 -0.0259123 1.38739e-10 -3.80871e-13 1.4885e-12 -2.22167 -0.733487 0.20892 -2.03217e-16 0.0 -3.88251e-19 2.21172 -7.8017 -0.224251 0.00522082 8.55968 0.135874 -0.548799 -0.766587 0.0462326 2.03217e-16 0.0 3.88251e-19 1.18412 -1.92859 -0.00254427 0.00908977 -2.07858 0.0749701 0.51356 3.99847 -0.140543
56.8116 79.5572 174.444 179.662 -1.1773 -179.756 1.49026 -2.80325 0.0037227 0.636146 0.343348 0.0878109 -0.227443 4.96435 -0.5221 1.19694 -7.90161 -0.80559 -0.0 0.0 0.0 -0.0 0.0 0.0 4.24262e-15 -9.10246e-16 5.83891e-15 21.2478 13.0272 -2.37068 -4.09249 -1.83489 6.41856 0.00384169 1.37604 0.193189 -5.08909e-11 1.29353e-11 1.36694e-10 -8.76783e-11 2.12112e-11 2.3731e-10 -5.08869e-11 1.29339e-11 1.36684e-10 7.73091 5.47488 0.417314 -5.08902e-11 1.29308e-11 1.36701e-10 2.90554 0.965183 0.102902 -5.08906e-11 1.29332e-11 1.36692e-10 10.2786 0.731801 0.0259123 -5.0897e-11 1.29363e-11 1.36697e-10 2.22167 -0.733487 -0.20892 4.00411e-15 -9.09427e-16 5.65566e-15 -20.8343 13.9856 0.574266 3.41319 -1.41861 -5.46643 -0.00998917 -2.21799 0.310876 3.60745e-10 9.6192e-11 -1.45508e-10 6.24546e-10 1.6781e-10 -2.50439e-10 3.60741e-10 9.6191e-11 -1.45491e-10 -7.73091 5.47488 -0.417314 3.60744e-10 9.61875e-11 -1.45508e-10 -2.90554 0.965183 -0.102902 3.60741e-10 9.61897e-11 -1.45502e-10 -10.2786 0.731801 -0.0259123 3.60754e-10 9.61935e-11 -1.45504e-10 -2.22167 -0.733487 0.20892 -2.03217e-16 0.0 -3.88251e-19 -3.547 -2.59703 7.47736 0.0116053 6.16589 0.0568631 -2.2552 -13.6875 -8.31325 2.03217e-16 0.0 3.88251e-19 7.59808 1.74788 -6.76547 0.00566163 -3.59277 0.0560884 -0.035968 -9.17092 -2.15538
56.8246 79.565 174.436 179.693 -1.229 -179.789 0.688972 -5.76684 -0.0589975 0.657988 0.699298 0.0675525 -0.365966 10.2127 -1.08748 2.20881 -16.2551 -1.7105 -0.0 0.0 0.0 -0.0 0.0 0.0 -6.37927e-15 -2.89963e-15 1.15947e-14 45.0092 26.7181 -5.32104 -7.97615 -3.69878 13.2269 -0.00221229 2.83705 0.398686 -2.71288e-10 2.87124e-11 2.93958e-10 -4.68025e-10 4.70973e-11 5.10396e-10 -2.71284e-10 2.87103e-11 2.93948e-10 7.73091 5.47488 0.417314 -2.71287e-10 2.87036e-11 2.93969e-10 2.90554 0.965183 0.102902 -2.71287e-10 2.87085e-11 2.93961e-10 10.2786 0.731801 0.0259123 -2.71295e-10 2.8712e-11 2.93968e-10 2.22167 -0.733487 -0.20892 -6.6664e-15 -2.89919e-15 1.13214e-14 -43.2038 28.7552 1.32765 6.7444 -2.88481 -11.2818 0.00568546 -4.556 0.640156 6.17047e-10 2.00285e-10 -3.24256e-10 1.06897e-09 3.49533e-10 -5.58201e-10 6.17041e-10 2.00283e-10 -3.2424e-10 -7.73091 5.47488 -0.417314 6.17044e-10 2.00276e-10 -3.24256e-10 -2.90554 0.965183 -0.102902 6.17042e-10 2.0028e-10 -3.2425e-10 -10.2786 0.731801 -0.0259123 6.17056e-10 2.00283e-10 -3.24253e-10 -2.22167 -0.733487 0.20892 -2.03217e-16 0.0 -3.88251e-19 -11.1465 2.75683 15.6106 0.0112212 3.63611 -0.0261515 -8.51671 -26.3721 -18.6636 2.03217e-16 0.0 3.88251e-19 15.3069 5.4962 -13.9756 0.000962097 -5.19349 0.0359361 -1.70213 -23.0388 -4.59802
56.8182 79.5593 174.46 179.716 -1.2846 -179.776 -0.0178833 -8.40881 -0.110931 0.677393 1.01209 0.0502357 -0.402922 14.888 -1.61464 2.87232 -23.6852 -2.61416 -0.0 0.0 0.0 -0.0 0.0 0.0 -1.57956e-14 -2.65386e-15 1.71192e-14 67.7414 38.7744 -8.90169 -11.0656 -5.22891 19.3294 -0.0163744 4.12794 0.580907 -4.30127e-10 3.95324e-11 4.07085e-10 -7.42141e-10 6.48866e-11 7.0678e-10 -4.30123e-10 3.95299e-11 4.07075e-10 7.73091 5.47488 0.417314 -4.30125e-10 3.95201e-11 4.071e-10 2.90554 0.965183 0.102902 -4.30126e-10 3.95269e-11 4.07093e-10 10.2786 0.731801 0.0259123 -4.30135e-10 3.95308e-11 4.07101e-10 2.22167 -0.733487 -0.20892 -1.61197e-14 -2.65374e-15 1.67682e-14 -63.589 41.937 2.24756 9.43807 -4.10114 -16.4375 0.0426524 -6.65319 0.938249 8.04774e-10 2.89347e-10 -4.39489e-10 1.39444e-09 5.04761e-10 -7.56451e-10 8.04766e-10 2.89345e-10 -4.39475e-10 -7.73091 5.47488 -0.417314 8.04769e-10 2.89335e-10 -4.39489e-10 -2.90554 0.965183 -0.102902 8.04768e-10 2.8934e-10 -4.39485e-10 -10.2786 0.731801 -0.0259123 8.04782e-10 2.89342e-10 -4.39488e-10 -2.22167 -0.733487 0.20892 -2.03217e-16 0.0 -3.88251e-19 -19.1714 7.13438 23.0418 0.00463445 1.37827 -0.0991482 -18.7567 -35.8118 -30.5192 2.03217e-16 0.0 3.88251e-19 22.9951 8.56663 -20.5209 -0.00420035 -6.62116 0.0182146 -4.42571 -35.2973 -7.48484
